<svg id="Layer_1" data-name="Layer 1" xmlns="http://www.w3.org/2000/svg" viewBox="0 0 1024.04 316.8"><title>Artboard 7 copy</title><path d="M184.71,100.34,107.55,0h0V0h0L30.39,100.34,0,251,107.61,316.8,215.1,251ZM107.6,297.59,13.05,239.75l26.7-132.37,67.79-88.16h0v0h0l67.8,88.16,26.7,132.37Z"/><path d="M65.08,169.91l23.5-46.08a4.61,4.61,0,0,1,4.49-2.56,4.52,4.52,0,0,1,4.05,5.19l-9.2,59.6,6.81-13.5a4.52,4.52,0,0,1,4-2.48h14.79l18.14-50.4a4.65,4.65,0,0,1,4.81-3.14,4.52,4.52,0,0,1,4,5l-6.26,58.7,4.23-8.61a2.09,2.09,0,0,1,1.89-1.18H179l-11.37-55-59.75-77.7h0v0h0l-59.75,77.7L37,170.42l26.35.5A1.88,1.88,0,0,0,65.08,169.91Z"/><path d="M145.26,180.42a1.89,1.89,0,0,0-1.72,1.12l-12.73,28.61a4.52,4.52,0,0,1-8.62-2.31L127.52,158,121,176.12a4.52,4.52,0,0,1-4.25,3H101.54L83.13,215.62a4.52,4.52,0,0,1-4,2.48,4.51,4.51,0,0,1-4.44-5.36l9.24-59.86-13,25.46c-1.88,3.08-2.88,2.08-5.24,2.3L35,180.42,24.64,232,108,283l83.23-51L181,180.42Z"/><path d="M364.56,110.51v95.78H337.47V168.94H300.53v37.35H273.44V110.51h27.09v36h36.94v-36Z"/><path d="M435,172v34.34H407.93V171.54l-36.53-61H400l22.71,38,22.71-38h26.27Z"/><path d="M564.46,146c0,21.76-16.42,35.3-42.56,35.3H505.21v25H478.12V110.51H521.9C548,110.51,564.46,124.06,564.46,146Zm-27.37,0c0-8.9-5.61-14.09-16.83-14.09H505.21v28h15.05C531.48,159.91,537.09,154.71,537.09,146Z"/><path d="M654.49,185.36v20.93h-76.9V110.51h75.12v20.93h-48.3v16.15H647v20.25H604.41v17.52Z"/><path d="M711.4,180.84H696.62v25.45H669.53V110.51h43.79c26.13,0,42.55,13.55,42.55,35.44,0,14.09-6.84,24.49-18.74,30.24l20.66,30.1h-29Zm.27-49h-15v28h15c11.23,0,16.84-5.2,16.84-14S722.9,131.86,711.67,131.86Z"/><path d="M770.78,110.51h27.09v95.78H770.78Z"/><path d="M812.23,158.4c0-28.73,22.58-49.8,53.23-49.8s53.23,21.07,53.23,49.8-22.58,49.81-53.23,49.81S812.23,187.13,812.23,158.4Zm79.09,0c0-16.56-11.36-27.37-25.86-27.37S839.6,141.84,839.6,158.4s11.36,27.37,25.86,27.37S891.32,175,891.32,158.4Z"/><path d="M1024,110.51v95.78h-22.31l-42.28-51v51H932.91V110.51h22.3l42.28,51v-51Z"/></svg>